<svg xmlns="http://www.w3.org/2000/svg" viewBox="0 0 48 48" id="up-arrow"><path d="M24 2.5C12.14 2.5 2.5 12.14 2.5 24S12.14 45.5 24 45.5 45.5 35.86 45.5 24 35.86 2.5 24 2.5zm0 40C13.8 42.5 5.5 34.2 5.5 24S13.8 5.5 24 5.5 42.5 13.8 42.5 24 34.2 42.5 24 42.5z"></path><path d="M25.12 13c-.05-.05-.1-.1-.16-.14-.02-.01-.03-.03-.05-.05-.11-.08-.22-.15-.35-.2-.01-.01-.02-.02-.04-.02-.02-.01-.03 0-.05-.01-.26-.09-.54-.11-.81-.05-.02 0-.04.01-.06.01-.13.03-.26.08-.38.16-.01 0-.01.01-.02.01-.07.05-.15.1-.21.15-.03.03-.05.06-.08.09-.01.01-.03.02-.04.03l-8 9c-.55.62-.49 1.57.13 2.12s1.57.5 2.12-.13l5.38-6.05V35c0 .83.67 1.5 1.5 1.5s1.5-.67 1.5-1.5V17.94L30.88 24c.3.33.71.5 1.12.5a1.503 1.503 0 0 0 1.13-2.5l-8.01-9z"></path></svg>